<svg xmlns="http://www.w3.org/2000/svg" width="91.828" height="35.408" viewBox="0 0 91.828 35.408">
  <g id="Featured_Logo_-_1" data-name="Featured Logo - 1" transform="translate(-915 -998)">
    <path id="Path_41" data-name="Path 41" d="M169.9,34.07l-7.619,19.747h-9.74l6.538-16.945c3.322-8.613,1.333-15.662-4.424-15.662h-14.7l-1.245,3.231H135.9l2.33-6.033h27.251c5.757,0,7.746,7.048,4.424,15.662m-19.9-7h-18.5L129.183,33.1H132l1.247-3.231h5.943c5.757,0,7.748,7.048,4.424,15.662l-3.2,8.285h9.74l4.277-11.09c3.325-8.613,1.333-15.662-4.424-15.662m-15.471,8.659H124.8l-2.328,6.033h2.813l1.024-2.652c3.623,1.818,4.562,7.717,1.975,14.711h9.742l.936-2.43c3.325-8.613,1.333-15.662-4.424-15.662" transform="translate(792.531 979.592)" fill="#727272" fill-rule="evenodd"/>
    <path id="Path_44" data-name="Path 44" d="M.052.026H7.566V-2.548H7.358a.9.9,0,0,1-.442.416H2.678V-18.72a.988.988,0,0,1,.442-.6v-.208H.052v.208a1.092,1.092,0,0,1,.468.572V-.78a1.084,1.084,0,0,1-.468.624ZM9.516,0H15.47l1.066-1.066V-18.434L15.47-19.5H9.516L8.424-18.434V-1.066Zm1.066-2.158V-17.342h3.8V-2.158Zm8.45,2.21h5.98l1.066-1.066v-8.58a1.123,1.123,0,0,1,.442-.546v-.182h-4.5V-7.7H22.2a1.123,1.123,0,0,1,.546-.442h1.17v6.032h-3.8v-15.21h3.8v2a.915.915,0,0,1-.39.442v.182h2.99v-.182a1.123,1.123,0,0,1-.442-.546v-2.964l-1.066-1.092h-5.98l-1.066,1.092V-1.014ZM28.808,0h5.954l1.066-1.066V-18.434L34.762-19.5H28.808l-1.092,1.066V-1.066Zm1.066-2.158V-17.342h3.8V-2.158Z" transform="translate(971 1032)" fill="#727272"/>
  </g>
</svg>
