<svg xmlns="http://www.w3.org/2000/svg" width="82.759" height="40.029" viewBox="0 0 82.759 40.029">
  <g id="Featured_Logo_-_2" data-name="Featured Logo - 2" transform="translate(-640 -991)">
    <path id="Path_39" data-name="Path 39" d="M69.525,34.468C65.295,24.633,66.495,4.96,77.673,0c5.355,12.876-5.035,22.19-8.148,34.468M64.981.368c-6.861,3.195-3.443,13.4.586,20.839C65.7,13.75,68.2,8.135,64.981.368M91.415,12.09c-11.08,1.317-20.282,16.765-21.073,27.939C79.77,31.446,95.2,27.146,91.415,12.09" transform="translate(578.94 991)" fill="#727272" fill-rule="evenodd"/>
    <path id="Path_43" data-name="Path 43" d="M.489-4.822q-.057,0-.057-.17t.057-.17A3.613,3.613,0,0,0,1.662-5.3a.988.988,0,0,0,.566-.537,5.964,5.964,0,0,0,.354-1.273L4.9-20.209a8.5,8.5,0,0,0,.113-.933.876.876,0,0,0-.339-.806,2.391,2.391,0,0,0-1.188-.212q-.057,0-.057-.17t.057-.17l1.273.028q1.131.057,1.81.057t1.867-.057L9.766-22.5q.057,0,.057.17t-.057.17a3.307,3.307,0,0,0-1.174.156,1.094,1.094,0,0,0-.58.566,4.933,4.933,0,0,0-.339,1.259L5.382-7.227a5.971,5.971,0,0,0-.085.905.87.87,0,0,0,.24.721,1.48,1.48,0,0,0,.863.184h.735a6.582,6.582,0,0,0,3.677-1.032,9.362,9.362,0,0,0,2.857-3.21.164.164,0,0,1,.113-.028q.226,0,.2.113-.707,2.63-.99,4.327a.7.7,0,0,1-.156.325.4.4,0,0,1-.3.1Zm18.356.4A3.447,3.447,0,0,1,16-5.629a4.8,4.8,0,0,1-.976-3.125,7.519,7.519,0,0,1,.141-1.527,7.689,7.689,0,0,1,1.23-3.026,6.7,6.7,0,0,1,2.22-2.065,5.6,5.6,0,0,1,2.8-.735,3.649,3.649,0,0,1,2.9,1.146,4.49,4.49,0,0,1,1,3.069,8.23,8.23,0,0,1-.17,1.612A7.784,7.784,0,0,1,23.809-7.1a6.646,6.646,0,0,1-2.291,1.994A5.77,5.77,0,0,1,18.845-4.426Zm.962-.707a1.882,1.882,0,0,0,1.57-1.047,7.831,7.831,0,0,0,.976-2.857,12.623,12.623,0,0,0,.2-2.234,7.008,7.008,0,0,0-.552-3,1.687,1.687,0,0,0-1.513-1.16,1.858,1.858,0,0,0-1.513.99,7.759,7.759,0,0,0-1,2.942,12.623,12.623,0,0,0-.2,2.234,7.07,7.07,0,0,0,.537,2.984A1.659,1.659,0,0,0,19.807-5.134ZM37.06-16.023q.141,0,.141.453a4.075,4.075,0,0,1-.127.99q-.127.509-.24.424a3.948,3.948,0,0,0-2.093-.679,3.175,3.175,0,0,1,.651,2.036,4.206,4.206,0,0,1-.113,1.018A5.078,5.078,0,0,1,33.439-8.74a4.98,4.98,0,0,1-3.168,1.146,3.627,3.627,0,0,1-.537-.028,1.311,1.311,0,0,0-.17.537,1.238,1.238,0,0,0,.495,1.174A11.105,11.105,0,0,0,31.94-4.794q1.1.537,1.768.948a4.082,4.082,0,0,1,1.146,1.061,2.544,2.544,0,0,1,.481,1.556,3.351,3.351,0,0,1-.877,2.291,5.673,5.673,0,0,1-2.319,1.527,8.841,8.841,0,0,1-3.111.537,5.725,5.725,0,0,1-3.253-.806A2.381,2.381,0,0,1,24.587.3a2.928,2.928,0,0,1,.99-2.107A12.48,12.48,0,0,1,28.4-3.776a1.846,1.846,0,0,1-1.018-1.442,1.89,1.89,0,0,1,.481-1.188,9.541,9.541,0,0,1,1.386-1.329,2.6,2.6,0,0,1-1.527-1.117,3.5,3.5,0,0,1-.537-1.937,6.782,6.782,0,0,1,.113-.99,4.938,4.938,0,0,1,1.754-2.956A4.908,4.908,0,0,1,32.28-15.91a3.132,3.132,0,0,1,1.98.594A6.6,6.6,0,0,1,37.06-16.023Zm-4.243,4.5q.057-.566.057-.905a5.93,5.93,0,0,0-.311-2.036q-.311-.849-.962-.849-.622,0-1.16.962a6.082,6.082,0,0,0-.679,2.376q-.057.679-.057.962a4.758,4.758,0,0,0,.368,2.022q.368.778.933.778.622,0,1.146-.919A5.988,5.988,0,0,0,32.817-11.526ZM33.015.1a2.092,2.092,0,0,0-.792-1.7,12.076,12.076,0,0,0-2.291-1.386A7.911,7.911,0,0,1,28.8-3.55a3.811,3.811,0,0,0-1.669,3,2.491,2.491,0,0,0,.962,2.008,3.614,3.614,0,0,0,2.376.792,2.585,2.585,0,0,0,1.923-.636A2.09,2.09,0,0,0,33.015.1Zm8-4.525a3.447,3.447,0,0,1-2.843-1.2A4.8,4.8,0,0,1,37.2-8.754a7.519,7.519,0,0,1,.141-1.527,7.689,7.689,0,0,1,1.23-3.026,6.7,6.7,0,0,1,2.22-2.065,5.6,5.6,0,0,1,2.8-.735,3.649,3.649,0,0,1,2.9,1.146,4.49,4.49,0,0,1,1,3.069,8.23,8.23,0,0,1-.17,1.612A7.784,7.784,0,0,1,45.983-7.1a6.646,6.646,0,0,1-2.291,1.994A5.77,5.77,0,0,1,41.02-4.426Zm.962-.707a1.882,1.882,0,0,0,1.57-1.047,7.831,7.831,0,0,0,.976-2.857,12.623,12.623,0,0,0,.2-2.234,7.008,7.008,0,0,0-.552-3,1.687,1.687,0,0,0-1.513-1.16,1.858,1.858,0,0,0-1.513.99,7.759,7.759,0,0,0-1,2.942,12.623,12.623,0,0,0-.2,2.234,7.07,7.07,0,0,0,.537,2.984A1.659,1.659,0,0,0,41.981-5.134Z" transform="translate(675.262 1022.535)" fill="#727272"/>
  </g>
</svg>
