<svg xmlns="http://www.w3.org/2000/svg" width="42.293" height="40.307" viewBox="0 0 42.293 40.307">
  <path id="Featured_Logo_-_4" data-name="Featured Logo - 4" d="M17.446,46.845l2.909,2.908,2.1-7.82,6.756,1.81,2.909-2.908-8.744-2.342.922-3.442,10.728,2.876,2.908-2.908-16.154-4.33ZM0,28.541,8.814,30.9,7.269,36.667l2.908,2.909,2.077-7.751,3.44.922-2.609,9.737,2.908,2.906,4.063-15.161-17.149-4.6Zm35.022-6.009h0v0ZM22.236,28.97l17.147,4.593,2.909-2.906-8.815-2.363,1.544-5.763-2.906-2.909-2.078,7.751L26.6,26.452l2.607-9.735L26.3,13.807Zm-2.394-11.7-6.758-1.81-2.908,2.908,8.742,2.342L18,24.148,7.269,21.272,4.361,24.181l16.156,4.328,4.328-16.156L21.936,9.446Z" transform="translate(0 -9.446)" fill="#727272"/>
</svg>
