<svg xmlns="http://www.w3.org/2000/svg" width="78" height="24.947" viewBox="0 0 78 24.947">
  <g id="Featured_Logo_-_6" data-name="Featured Logo - 6" transform="translate(-120 -979.888)">
    <path id="Path_37" data-name="Path 37" d="M.493-2.35H13.662l.825-6.237h-.155C12.3-4.515,10.286-2.763,8.56-2.763H8.1c-.567,0-.8-.412-.8-.979v-14.02c0-1.907.1-3.2,1.856-3.2v-.155H.493v.155c1.752,0,1.856,1.289,1.856,3.2V-5.7c0,1.907-.1,3.2-1.856,3.2Zm21.6.309c4.072,0,6.752-2.835,6.752-7.113,0-4.33-2.577-7.01-6.7-7.01-4.072,0-6.752,2.835-6.752,7.113C15.389-4.721,17.966-2.041,22.09-2.041Zm.052-.361c-1.6,0-1.8-3.3-1.8-6.7,0-3.556.155-6.7,1.752-6.7s1.8,3.3,1.8,6.7C23.894-5.546,23.739-2.4,22.141-2.4ZM38.532-5.675H33.893c-.928,0-1.185-.335-1.185-.747,0-.387.18-.619.593-.928a7.587,7.587,0,0,0,2.4.335c3.4,0,5.541-1.856,5.541-4.639a4.227,4.227,0,0,0-1.082-2.964l2.371.258.49-1.752-4.3.515a7.491,7.491,0,0,0-3.015-.567c-3.4,0-5.567,1.881-5.567,4.639a4.087,4.087,0,0,0,2.861,4.072c-1.624.928-2.732,1.8-2.732,3.144a2.251,2.251,0,0,0,2.577,2.4h4.845c1.727,0,2.68.747,2.68,1.984,0,1.727-1.443,2.706-3.35,2.706-2.423,0-3.84-1.16-3.84-2.938a2.857,2.857,0,0,1,.438-1.469h-.1l-.49.077C31.47-1.294,29.77-.6,29.77,1.155c0,1.237,1.314,2.68,4.871,2.68,4.123,0,8.376-2.371,8.376-5.824C43.016-4.257,41.367-5.675,38.532-5.675ZM35.7-15.8c1.392,0,1.624,1.933,1.624,4.2S37.089-7.376,35.7-7.376,34.048-9.334,34.048-11.6,34.305-15.8,35.7-15.8ZM49.974-2.041c4.072,0,6.752-2.835,6.752-7.113,0-4.33-2.577-7.01-6.7-7.01-4.072,0-6.752,2.835-6.752,7.113C43.274-4.721,45.851-2.041,49.974-2.041Zm.052-.361c-1.6,0-1.8-3.3-1.8-6.7,0-3.556.155-6.7,1.752-6.7s1.8,3.3,1.8,6.7C51.779-5.546,51.624-2.4,50.026-2.4Z" transform="translate(141.273 1001)" fill="#727272"/>
    <path id="Polygon_2" data-name="Polygon 2" d="M8,0l1.88,6.119L16,8,9.878,9.878,8,16,6.119,9.878,0,8l6.119-1.88Z" transform="translate(120 982.654)" fill="#727272"/>
  </g>
</svg>
