<svg xmlns="http://www.w3.org/2000/svg" width="125.851" height="30.347" viewBox="0 0 125.851 30.347">
  <g id="Featured_Logo_-_5" data-name="Featured Logo - 5" transform="translate(-1053 -1001)">
    <path id="Path_40" data-name="Path 40" d="M216.159,34.276l8.975,15.545a4.669,4.669,0,0,0,6.346,1.7l3.765-2.173a7.336,7.336,0,0,1-3.763-3.193l-7.819-13.545a4.668,4.668,0,0,0-6.346-1.7l-2.658,1.534a7.3,7.3,0,0,1,1.5,1.835M213.8,35.634l8.975,15.545a7.293,7.293,0,0,0,1.5,1.835l-2.66,1.536a4.674,4.674,0,0,1-6.346-1.7c-.631-.819-7.819-13.407-7.819-13.545a7.321,7.321,0,0,0-3.761-3.193l3.763-2.175a4.672,4.672,0,0,1,6.348,1.7m29.718,5.788a5.464,5.464,0,0,1-1.97,7.426c-.211,0-8.5,5.028-8.709,5.028a7.355,7.355,0,0,1-5.782.673L222.98,56.9a7.378,7.378,0,0,1-10.07-2.71l-2.34,1.352a7.39,7.39,0,0,1-10.064-2.7l-5.092-8.818a5.462,5.462,0,0,1,2-7.437l8.684-5.015a7.351,7.351,0,0,1,5.784-.673l4.079-2.355a7.371,7.371,0,0,1,10.068,2.71l2.34-1.352a7.393,7.393,0,0,1,10.066,2.7Zm-2.357,1.362c2.186,3.784-4.737,6.484-7.324,2.008l-6.453-11.177,2.338-1.35a4.67,4.67,0,0,1,6.348,1.7Zm-38.3,8.7a4.668,4.668,0,0,0,6.346,1.7l2.338-1.35-6.453-11.177c-2.583-4.476-9.518-1.793-7.324,2.008Z" transform="translate(858.311 973.447)" fill="#727272" fill-rule="evenodd"/>
    <path id="Path_42" data-name="Path 42" d="M1.2,0V-13.818H4.123V-2.409h5.924V0Zm26.74-6.909a8.017,8.017,0,0,1-.854,3.846A5.948,5.948,0,0,1,24.767-.644a6.556,6.556,0,0,1-3.3.833,6.544,6.544,0,0,1-3.306-.837A5.956,5.956,0,0,1,15.85-3.07,8.028,8.028,0,0,1,15-6.909a8.044,8.044,0,0,1,.85-3.846,5.933,5.933,0,0,1,2.314-2.419,6.565,6.565,0,0,1,3.306-.833,6.556,6.556,0,0,1,3.3.833,5.948,5.948,0,0,1,2.321,2.419A8.017,8.017,0,0,1,27.941-6.909Zm-2.962,0a6.215,6.215,0,0,0-.435-2.469A3.363,3.363,0,0,0,23.32-10.9a3.286,3.286,0,0,0-1.849-.52,3.286,3.286,0,0,0-1.849.52A3.363,3.363,0,0,0,18.4-9.379a6.215,6.215,0,0,0-.435,2.469A6.215,6.215,0,0,0,18.4-4.44a3.363,3.363,0,0,0,1.225,1.525,3.286,3.286,0,0,0,1.849.52,3.286,3.286,0,0,0,1.849-.52A3.363,3.363,0,0,0,24.544-4.44,6.215,6.215,0,0,0,24.979-6.909ZM43.063-9.352a3.079,3.079,0,0,0-.4-.874,2.552,2.552,0,0,0-.624-.648,2.786,2.786,0,0,0-.837-.408,3.57,3.57,0,0,0-1.036-.142,3.3,3.3,0,0,0-1.859.526,3.446,3.446,0,0,0-1.245,1.528,6.009,6.009,0,0,0-.445,2.446,6.165,6.165,0,0,0,.439,2.456A3.41,3.41,0,0,0,38.3-2.925a3.364,3.364,0,0,0,1.9.53,3.744,3.744,0,0,0,1.7-.354,2.519,2.519,0,0,0,1.08-1,3.008,3.008,0,0,0,.374-1.532l.594.088H40.378v-2.2H46.16v1.741a6.054,6.054,0,0,1-.769,3.127A5.213,5.213,0,0,1,43.272-.516a6.575,6.575,0,0,1-3.09.705,6.638,6.638,0,0,1-3.414-.86,5.9,5.9,0,0,1-2.291-2.449,8.136,8.136,0,0,1-.82-3.775,8.586,8.586,0,0,1,.489-3,6.367,6.367,0,0,1,1.373-2.237,5.948,5.948,0,0,1,2.058-1.4,6.668,6.668,0,0,1,2.544-.479,6.81,6.81,0,0,1,2.186.341,5.923,5.923,0,0,1,1.8.961,5.228,5.228,0,0,1,1.285,1.474,5.051,5.051,0,0,1,.641,1.879ZM64.851-6.909A8.017,8.017,0,0,1,64-3.063,5.948,5.948,0,0,1,61.676-.644a6.556,6.556,0,0,1-3.3.833,6.544,6.544,0,0,1-3.306-.837A5.956,5.956,0,0,1,52.76-3.07a8.028,8.028,0,0,1-.85-3.839,8.044,8.044,0,0,1,.85-3.846,5.933,5.933,0,0,1,2.314-2.419,6.565,6.565,0,0,1,3.306-.833,6.556,6.556,0,0,1,3.3.833A5.948,5.948,0,0,1,64-10.755,8.017,8.017,0,0,1,64.851-6.909Zm-2.962,0a6.215,6.215,0,0,0-.435-2.469A3.363,3.363,0,0,0,60.229-10.9a3.286,3.286,0,0,0-1.849-.52,3.286,3.286,0,0,0-1.849.52,3.363,3.363,0,0,0-1.225,1.525,6.215,6.215,0,0,0-.435,2.469,6.215,6.215,0,0,0,.435,2.469,3.363,3.363,0,0,0,1.225,1.525,3.286,3.286,0,0,0,1.849.52,3.286,3.286,0,0,0,1.849-.52A3.363,3.363,0,0,0,61.454-4.44,6.215,6.215,0,0,0,61.889-6.909Z" transform="translate(1114 1023.007)" fill="#727272"/>
  </g>
</svg>
