<svg xmlns="http://www.w3.org/2000/svg" width="12.31" height="16" viewBox="0 0 12.31 16">
  <path id="icon-pinterest" d="M6.54.208C3.251.208,0,2.4,0,5.95,0,8.207,1.269,9.489,2.039,9.489c.317,0,.5-.885.5-1.135,0-.3-.76-.933-.76-2.173a4.332,4.332,0,0,1,4.5-4.4c2.183,0,3.8,1.241,3.8,3.52,0,1.7-.683,4.9-2.895,4.9A1.423,1.423,0,0,1,5.7,8.787c0-1.212.846-2.385.846-3.635,0-2.122-3.01-1.738-3.01.827A3.766,3.766,0,0,0,3.847,7.6C3.4,9.508,2.5,12.345,2.5,14.307c0,.606.087,1.2.144,1.808.109.122.054.109.221.048,1.616-2.212,1.558-2.645,2.289-5.539a2.6,2.6,0,0,0,2.222,1.154c3.4,0,4.934-3.318,4.934-6.309C12.31,2.286,9.559.208,6.54.208Z" transform="translate(0 -0.208)" fill="#fff"/>
</svg>
