<svg xmlns="http://www.w3.org/2000/svg" width="16" height="11.25" viewBox="0 0 16 11.25">
  <path id="icon-youtube" d="M16.1,3.635a2.01,2.01,0,0,0-1.415-1.424,47.51,47.51,0,0,0-6.251-.337,47.511,47.511,0,0,0-6.251.337A2.01,2.01,0,0,0,.772,3.635,21.09,21.09,0,0,0,.437,7.511a21.09,21.09,0,0,0,.334,3.876,1.98,1.98,0,0,0,1.415,1.4,47.511,47.511,0,0,0,6.251.337,47.511,47.511,0,0,0,6.251-.337,1.98,1.98,0,0,0,1.415-1.4,21.09,21.09,0,0,0,.334-3.876A21.09,21.09,0,0,0,16.1,3.635ZM6.8,9.89V5.132l4.182,2.379L6.8,9.89Z" transform="translate(-0.438 -1.875)" fill="#fff"/>
</svg>
