<svg xmlns="http://www.w3.org/2000/svg" width="16.099" height="16.099" viewBox="0 0 16.099 16.099">
  <path id="icon-dribbble" d="M8.372.323a8.049,8.049,0,1,0,8.049,8.049A8.058,8.058,0,0,0,8.372.323Zm5.322,3.712a6.843,6.843,0,0,1,1.553,4.283A16.067,16.067,0,0,0,10.459,8.1c-.187-.456-.363-.857-.6-1.351a9.158,9.158,0,0,0,3.839-2.711Zm-.764-.8a7.763,7.763,0,0,1-3.6,2.484A36.7,36.7,0,0,0,6.761,1.7,6.858,6.858,0,0,1,12.93,3.239ZM5.449,2.16A43.869,43.869,0,0,1,8,6.137a25.645,25.645,0,0,1-6.356.838A6.9,6.9,0,0,1,5.449,2.16ZM1.5,8.382c0-.07,0-.14,0-.21a25.362,25.362,0,0,0,7.066-.978c.2.385.385.776.557,1.167a10.65,10.65,0,0,0-5.859,4.619A6.848,6.848,0,0,1,1.5,8.382Zm2.655,5.424A9.67,9.67,0,0,1,9.591,9.5a28.579,28.579,0,0,1,1.467,5.214A6.861,6.861,0,0,1,4.152,13.806Zm8.062.276a29.674,29.674,0,0,0-1.336-4.9,10.091,10.091,0,0,1,4.283.294A6.887,6.887,0,0,1,12.213,14.082Z" transform="translate(-0.323 -0.322)" fill="#fff"/>
</svg>
