<svg xmlns="http://www.w3.org/2000/svg" width="16.099" height="13.075" viewBox="0 0 16.099 13.075">
  <path id="icon-twitter" d="M14.444,5.137c.01.143.01.286.01.429a9.323,9.323,0,0,1-9.387,9.387A9.324,9.324,0,0,1,0,13.472a6.825,6.825,0,0,0,.8.041,6.608,6.608,0,0,0,4.1-1.41A3.305,3.305,0,0,1,1.808,9.815a4.161,4.161,0,0,0,.623.051A3.49,3.49,0,0,0,3.3,9.754,3.3,3.3,0,0,1,.654,6.516V6.475a3.323,3.323,0,0,0,1.491.419A3.3,3.3,0,0,1,1.124,2.481a9.378,9.378,0,0,0,6.8,3.453,3.725,3.725,0,0,1-.082-.756,3.3,3.3,0,0,1,5.71-2.257,6.5,6.5,0,0,0,2.094-.8A3.291,3.291,0,0,1,14.2,3.942a6.614,6.614,0,0,0,1.9-.511,7.092,7.092,0,0,1-1.655,1.706Z" transform="translate(0 -1.878)" fill="#fff"/>
</svg>
