<svg xmlns="http://www.w3.org/2000/svg" width="16.099" height="16.095" viewBox="0 0 16.099 16.095">
  <path id="icon-instagram" d="M8.048,5.341a4.127,4.127,0,1,0,4.127,4.127A4.12,4.12,0,0,0,8.048,5.341Zm0,6.809a2.683,2.683,0,1,1,2.683-2.683A2.688,2.688,0,0,1,8.048,12.15Zm5.258-6.978a.963.963,0,1,1-.963-.963A.96.96,0,0,1,13.306,5.172Zm2.733.977a4.763,4.763,0,0,0-1.3-3.372,4.8,4.8,0,0,0-3.372-1.3c-1.329-.075-5.312-.075-6.641,0a4.788,4.788,0,0,0-3.372,1.3,4.779,4.779,0,0,0-1.3,3.372c-.075,1.329-.075,5.312,0,6.641a4.763,4.763,0,0,0,1.3,3.372,4.8,4.8,0,0,0,3.372,1.3c1.329.075,5.312.075,6.641,0a4.763,4.763,0,0,0,3.372-1.3,4.8,4.8,0,0,0,1.3-3.372c.075-1.329.075-5.308,0-6.637Zm-1.717,8.063a2.716,2.716,0,0,1-1.53,1.53c-1.059.42-3.573.323-4.744.323s-3.688.093-4.744-.323a2.716,2.716,0,0,1-1.53-1.53c-.42-1.059-.323-3.573-.323-4.744s-.093-3.688.323-4.744A2.716,2.716,0,0,1,3.3,3.193c1.059-.42,3.573-.323,4.744-.323s3.688-.093,4.744.323a2.716,2.716,0,0,1,1.53,1.53c.42,1.059.323,3.573.323,4.744S14.742,13.156,14.322,14.212Z" transform="translate(0.003 -1.42)" fill="#fff"/>
</svg>
