<svg xmlns="http://www.w3.org/2000/svg" width="113.612" height="13.468" viewBox="0 0 113.612 13.468">
  <path id="Path_6595" data-name="Path 6595" d="M1.438,0V-13.091H6.1a5.442,5.442,0,0,1,2.528.524,3.485,3.485,0,0,1,1.505,1.448,4.418,4.418,0,0,1,.5,2.132,4.308,4.308,0,0,1-.5,2.113A3.415,3.415,0,0,1,8.626-5.459a5.617,5.617,0,0,1-2.528.5H2.563v-1.7H5.919a3.8,3.8,0,0,0,1.563-.275,1.82,1.82,0,0,0,.885-.8,2.63,2.63,0,0,0,.281-1.259,2.734,2.734,0,0,0-.284-1.285,1.893,1.893,0,0,0-.888-.834A3.668,3.668,0,0,0,5.893-11.4H3.413V0ZM7.9-5.906,11.135,0H8.885L5.714-5.906ZM16.907.2A4.508,4.508,0,0,1,14.5-.435a4.267,4.267,0,0,1-1.6-1.771,5.875,5.875,0,0,1-.569-2.659A5.931,5.931,0,0,1,12.9-7.536a4.259,4.259,0,0,1,1.6-1.777,4.508,4.508,0,0,1,2.41-.633,4.508,4.508,0,0,1,2.41.633,4.259,4.259,0,0,1,1.6,1.777,5.931,5.931,0,0,1,.569,2.672,5.875,5.875,0,0,1-.569,2.659,4.267,4.267,0,0,1-1.6,1.771A4.508,4.508,0,0,1,16.907.2Zm.006-1.6A2.291,2.291,0,0,0,18.4-1.879a2.794,2.794,0,0,0,.873-1.259,5.059,5.059,0,0,0,.284-1.732A5.067,5.067,0,0,0,19.269-6.6,2.835,2.835,0,0,0,18.4-7.869a2.27,2.27,0,0,0-1.483-.479,2.293,2.293,0,0,0-1.493.479A2.824,2.824,0,0,0,14.545-6.6a5.067,5.067,0,0,0-.284,1.729,5.059,5.059,0,0,0,.284,1.732,2.783,2.783,0,0,0,.876,1.259A2.314,2.314,0,0,0,16.913-1.406ZM23.766,0V-13.091h1.911v4.864h.115a5.341,5.341,0,0,1,.479-.71,2.747,2.747,0,0,1,.869-.706,3.066,3.066,0,0,1,1.47-.3,3.835,3.835,0,0,1,2.122.6A4.054,4.054,0,0,1,32.2-7.613a6.34,6.34,0,0,1,.534,2.723A6.394,6.394,0,0,1,32.2-2.164,4.113,4.113,0,0,1,30.746-.419a3.759,3.759,0,0,1-2.116.61,3.105,3.105,0,0,1-1.461-.3,2.762,2.762,0,0,1-.885-.7,5.322,5.322,0,0,1-.492-.716h-.16V0Zm1.873-4.909a5.034,5.034,0,0,0,.3,1.815,2.731,2.731,0,0,0,.869,1.218,2.217,2.217,0,0,0,1.393.438A2.23,2.23,0,0,0,29.634-1.9a2.817,2.817,0,0,0,.873-1.243,4.978,4.978,0,0,0,.3-1.771,4.93,4.93,0,0,0-.291-1.745,2.7,2.7,0,0,0-.869-1.221A2.285,2.285,0,0,0,28.2-8.322a2.275,2.275,0,0,0-1.4.428,2.619,2.619,0,0,0-.866,1.2A4.986,4.986,0,0,0,25.638-4.909Zm25.53-1.636a7.849,7.849,0,0,1-.767,3.6A5.611,5.611,0,0,1,48.3-.63a5.719,5.719,0,0,1-3.027.809A5.731,5.731,0,0,1,42.242-.63a5.607,5.607,0,0,1-2.1-2.317,7.854,7.854,0,0,1-.767-3.6,7.849,7.849,0,0,1,.767-3.6,5.611,5.611,0,0,1,2.1-2.314,5.731,5.731,0,0,1,3.033-.809,5.719,5.719,0,0,1,3.027.809,5.611,5.611,0,0,1,2.1,2.314A7.849,7.849,0,0,1,51.168-6.545Zm-1.956,0A6.317,6.317,0,0,0,48.7-9.24,3.832,3.832,0,0,0,47.292-10.9a3.685,3.685,0,0,0-2.017-.566,3.68,3.68,0,0,0-2.02.566,3.84,3.84,0,0,0-1.4,1.662,6.317,6.317,0,0,0-.515,2.694,6.317,6.317,0,0,0,.515,2.694,3.84,3.84,0,0,0,1.4,1.662,3.68,3.68,0,0,0,2.02.566,3.685,3.685,0,0,0,2.017-.566A3.832,3.832,0,0,0,48.7-3.851,6.317,6.317,0,0,0,49.212-6.545Zm5.9-6.545v1.227a3.573,3.573,0,0,1-.2,1.141,4.909,4.909,0,0,1-.566,1.147,4.142,4.142,0,0,1-.857.946l-.946-.678a7.455,7.455,0,0,0,.655-1.17,3.305,3.305,0,0,0,.278-1.368v-1.246ZM57.209,0V-13.091h4.666a5.442,5.442,0,0,1,2.528.524,3.485,3.485,0,0,1,1.505,1.448,4.418,4.418,0,0,1,.5,2.132,4.308,4.308,0,0,1-.5,2.113A3.415,3.415,0,0,1,64.4-5.459a5.617,5.617,0,0,1-2.528.5H58.334v-1.7H61.69a3.8,3.8,0,0,0,1.563-.275,1.82,1.82,0,0,0,.885-.8,2.63,2.63,0,0,0,.281-1.259,2.734,2.734,0,0,0-.284-1.285,1.893,1.893,0,0,0-.888-.834,3.668,3.668,0,0,0-1.582-.291h-2.48V0Zm6.462-5.906L66.906,0h-2.25l-3.17-5.906ZM72.678.2a4.508,4.508,0,0,1-2.41-.633,4.267,4.267,0,0,1-1.6-1.771A5.875,5.875,0,0,1,68.1-4.864a5.931,5.931,0,0,1,.569-2.672,4.259,4.259,0,0,1,1.6-1.777,4.508,4.508,0,0,1,2.41-.633,4.508,4.508,0,0,1,2.41.633,4.259,4.259,0,0,1,1.6,1.777,5.931,5.931,0,0,1,.569,2.672,5.875,5.875,0,0,1-.569,2.659,4.267,4.267,0,0,1-1.6,1.771A4.508,4.508,0,0,1,72.678.2Zm.006-1.6a2.291,2.291,0,0,0,1.483-.473,2.794,2.794,0,0,0,.873-1.259,5.059,5.059,0,0,0,.284-1.732A5.067,5.067,0,0,0,75.039-6.6a2.835,2.835,0,0,0-.873-1.269,2.27,2.27,0,0,0-1.483-.479,2.293,2.293,0,0,0-1.493.479A2.824,2.824,0,0,0,70.316-6.6a5.067,5.067,0,0,0-.284,1.729,5.059,5.059,0,0,0,.284,1.732,2.783,2.783,0,0,0,.876,1.259A2.314,2.314,0,0,0,72.684-1.406ZM85.6-4.072V-9.818H87.52V0H85.641V-1.7h-.1A3.051,3.051,0,0,1,84.455-.393,3.15,3.15,0,0,1,82.6.128a3.284,3.284,0,0,1-1.672-.419A2.873,2.873,0,0,1,79.8-1.534a4.532,4.532,0,0,1-.412-2.039V-9.818h1.911V-3.8a2.245,2.245,0,0,0,.556,1.6,1.888,1.888,0,0,0,1.445.594,2.363,2.363,0,0,0,1.071-.268,2.277,2.277,0,0,0,.888-.812A2.444,2.444,0,0,0,85.6-4.072ZM90.083,0V-9.818H91.93v1.56h.1a2.384,2.384,0,0,1,.949-1.25,2.706,2.706,0,0,1,1.544-.457q.179,0,.425.013t.387.032v1.828a3.714,3.714,0,0,0-.409-.074,4.2,4.2,0,0,0-.588-.042,2.5,2.5,0,0,0-1.2.284,2.162,2.162,0,0,0-.834.786A2.143,2.143,0,0,0,91.994-6V0Zm8.674-3.33-.013-2.333h.332l3.912-4.155h2.288l-4.462,4.73h-.3ZM97,0V-13.091h1.911V0Zm6.2,0L99.684-4.666,101-6l4.545,6Zm7.638.2a4.785,4.785,0,0,1-2.5-.623,4.154,4.154,0,0,1-1.611-1.758,5.9,5.9,0,0,1-.566-2.662,5.954,5.954,0,0,1,.566-2.659,4.338,4.338,0,0,1,1.585-1.8,4.367,4.367,0,0,1,2.387-.646,4.811,4.811,0,0,1,1.611.275,3.9,3.9,0,0,1,1.4.863,4.058,4.058,0,0,1,.978,1.525,6.382,6.382,0,0,1,.358,2.272v.678h-7.8V-5.766h5.932a2.84,2.84,0,0,0-.307-1.339,2.332,2.332,0,0,0-.86-.924,2.428,2.428,0,0,0-1.294-.339,2.5,2.5,0,0,0-1.4.393,2.656,2.656,0,0,0-.92,1.023,2.948,2.948,0,0,0-.323,1.365v1.119a3.685,3.685,0,0,0,.348,1.675,2.456,2.456,0,0,0,.975,1.051,2.879,2.879,0,0,0,1.464.361,2.983,2.983,0,0,0,.991-.157,2.1,2.1,0,0,0,.773-.47,2.055,2.055,0,0,0,.5-.773l1.809.326a3.268,3.268,0,0,1-.777,1.4,3.762,3.762,0,0,1-1.4.927A5.219,5.219,0,0,1,110.838.2Z" transform="translate(-1.438 13.27)" fill="#727272"/>
</svg>
