<svg xmlns="http://www.w3.org/2000/svg" width="98.434" height="99.001" viewBox="0 0 98.434 99.001">
  <path id="Union_1" data-name="Union 1" d="M-5323.851-23.132l.027-1.04,3.147.077.044-1.859-2.846-.069.026-1.04,2.846.07.071-2.91,1.241.031-.168,6.849Zm11.286-1.54,3.145-.666-.387-1.82-2.917.62-.217-1.017,2.92-.618-.388-1.831-3.172.674-.215-1.017,4.384-.93,1.422,6.7-4.359.924Zm-17.41.755a3.126,3.126,0,0,1-1.5-.724,2.955,2.955,0,0,1-.864-1.4,4.023,4.023,0,0,1-.035-1.939,4.019,4.019,0,0,1,.776-1.777,2.944,2.944,0,0,1,1.338-.962,3.107,3.107,0,0,1,1.662-.094,3.109,3.109,0,0,1,1.5.726,2.973,2.973,0,0,1,.865,1.405,4.026,4.026,0,0,1,.034,1.935,4.021,4.021,0,0,1-.776,1.777,2.957,2.957,0,0,1-1.338.963,2.981,2.981,0,0,1-.98.163A3.473,3.473,0,0,1-5329.975-23.917Zm.139-5.732a1.845,1.845,0,0,0-.817.666,3.207,3.207,0,0,0-.5,1.245,3.185,3.185,0,0,0-.02,1.338,1.815,1.815,0,0,0,.5.927,1.787,1.787,0,0,0,.913.465,1.779,1.779,0,0,0,1.022-.078,1.815,1.815,0,0,0,.815-.666,3.171,3.171,0,0,0,.5-1.242,3.17,3.17,0,0,0,.021-1.338,1.832,1.832,0,0,0-.5-.93,1.765,1.765,0,0,0-.915-.462,2,2,0,0,0-.4-.041A1.689,1.689,0,0,0-5329.836-29.649Zm-8.744,3.069a2.883,2.883,0,0,1-1.13-.745,1.888,1.888,0,0,1-.473-1.015,2.32,2.32,0,0,1,.17-1.168,2.234,2.234,0,0,1,.68-.958,1.868,1.868,0,0,1,1.039-.391c.047,0,.095-.005.143-.005l-.374-3.07,1.287.512.323,2.83,1.173.466.928-2.332,1.153.459-2.533,6.365Zm.646-3.168a.9.9,0,0,0-.546.189,1.232,1.232,0,0,0-.36.519,1.274,1.274,0,0,0-.1.633.928.928,0,0,0,.261.528,1.849,1.849,0,0,0,.656.406l1.056.42.841-2.113-1.063-.423a1.966,1.966,0,0,0-.707-.16ZM-5336.838-29.919Zm32.542-2.02-2.82,1.073-.369-.973,3.98-1.513,2.434,6.4-1.16.442Zm6.024,2.725a1.7,1.7,0,0,1-.667-.666,1.465,1.465,0,0,1-.217-.7,1.345,1.345,0,0,1,.135-.632,1.794,1.794,0,0,1,.392-.53l-.032-.059a1.512,1.512,0,0,1-.72.156,1.562,1.562,0,0,1-.761-.22,1.74,1.74,0,0,1-.628-.666,1.789,1.789,0,0,1-.253-.955,1.762,1.762,0,0,1,.34-.966,3.081,3.081,0,0,1,1.009-.861l2.4-1.382,3.416,5.938-2.273,1.307a2.891,2.891,0,0,1-1.188.415q-.091.007-.177.007A1.59,1.59,0,0,1-5298.271-29.214Zm.825-2.836a1.372,1.372,0,0,0-.442.391.969.969,0,0,0-.185.5.9.9,0,0,0,.131.526.847.847,0,0,0,.568.428,1.182,1.182,0,0,0,.846-.189l1.087-.625-.942-1.638Zm-1.539-2.46a1.482,1.482,0,0,0-.716.71.839.839,0,0,0,.073.728,1.025,1.025,0,0,0,.4.4,1.048,1.048,0,0,0,.564.124,1.441,1.441,0,0,0,.646-.208l1.186-.68-1-1.742Zm-48.938,3.061,2.129-4.725-.048-.039-4.142,3.152-.955-.748,2.063-4.781-.047-.038L-5353-35.422l-1.051-.822,5.743-4.2.965.755-1.881,4.63.043.034,4.043-2.94.963.756-2.7,6.586Zm52.185-6.233,1.015-.852,1.52.93,1.974-1.655-.65-1.658,1.015-.85,2.552,6.8-1.173.985Zm5.914,2.148.041-.034-1.062-2.709-1.461,1.223Zm-66.752-4.026a3.118,3.118,0,0,1-1.354-.967,3.109,3.109,0,0,1-.714-1.5,2.952,2.952,0,0,1,.2-1.637,4.036,4.036,0,0,1,1.188-1.533,4.026,4.026,0,0,1,1.717-.9,2.943,2.943,0,0,1,1.646.086,3.112,3.112,0,0,1,1.354.966,3.1,3.1,0,0,1,.713,1.5,2.953,2.953,0,0,1-.2,1.637,4.02,4.02,0,0,1-1.185,1.532,4.022,4.022,0,0,1-1.718.9,3.23,3.23,0,0,1-.691.077A2.849,2.849,0,0,1-5356.577-39.561Zm1.287-5.343a3.18,3.18,0,0,0-1.165.659,3.225,3.225,0,0,0-.854,1.032,1.827,1.827,0,0,0-.191,1.035,1.79,1.79,0,0,0,.422.935,1.786,1.786,0,0,0,.846.578,1.812,1.812,0,0,0,1.054-.008,3.17,3.17,0,0,0,1.164-.659,3.185,3.185,0,0,0,.853-1.031,1.832,1.832,0,0,0,.192-1.036,1.793,1.793,0,0,0-.423-.935,1.792,1.792,0,0,0-.845-.578,1.638,1.638,0,0,0-.491-.073A2.1,2.1,0,0,0-5355.29-44.9Zm68.366.21-1.952,2.3-.792-.672,2.754-3.247,5.225,4.43-.8.947Zm1.342-3.524.687-1.033,5.707,3.792-.687,1.033Zm-77.385.26a2.894,2.894,0,0,1-.419-1.288,1.888,1.888,0,0,1,.266-1.086,2.3,2.3,0,0,1,.861-.808,2.232,2.232,0,0,1,1.131-.323,1.85,1.85,0,0,1,1.055.344q.059.04.116.085l1.623-2.631.686,1.2-1.513,2.413.625,1.1,2.18-1.243.614,1.079-5.951,3.392Zm1.334-2.086a1.255,1.255,0,0,0-.47.435.917.917,0,0,0-.126.577,1.8,1.8,0,0,0,.257.726l.563.988,1.977-1.127-.566-.994a1.918,1.918,0,0,0-.486-.593.9.9,0,0,0-.544-.191A1.228,1.228,0,0,0-5361.632-50.043Zm77.811-.74.579-1.191,1.768.227,1.125-2.316-1.272-1.247.58-1.192,5.108,5.162-.669,1.378Zm6.279-.458.021-.049-2.078-2.038-.833,1.715Zm-88.378-2.885,2.959-1.073-.028-.079-3.87-1.439-.516-1.424,3.793,1.443,2.638-3.8.508,1.4-2.063,2.923,1.1.408,1.918-.7.423,1.167-6.441,2.335Zm85.767-5.22.433-1.47,7.255-.375-.386,1.306-5.677.186-.02.066,4.669,3.233-.385,1.31Zm1.391-5.658,1.745-.357.314-2.559-1.607-.767.16-1.315,6.507,3.226-.186,1.521-7.093,1.566Zm2.776-.57,2.853-.585.007-.054-2.628-1.254Zm-90.157.135a1.53,1.53,0,0,1-.589-.47,1.4,1.4,0,0,1-.282-.713,1.4,1.4,0,0,1,.113-.757,1.515,1.515,0,0,1,.467-.589,1.422,1.422,0,0,1,.714-.283,1.431,1.431,0,0,1,.757.113,1.532,1.532,0,0,1,.59.469,1.411,1.411,0,0,1,.281.714,1.4,1.4,0,0,1-.114.756,1.5,1.5,0,0,1-.468.592,1.423,1.423,0,0,1-.713.28,1.6,1.6,0,0,1-.183.011A1.383,1.383,0,0,1-5366.145-65.438ZM-5369-77.285l.188-1.52,7.094-1.56-.162,1.315-1.746.357-.314,2.556,1.607.768-.162,1.315Zm1.492-.614-.007.053,2.626,1.256.232-1.891Zm91.827,2.049a1.5,1.5,0,0,1-.589-.469,1.393,1.393,0,0,1-.281-.713,1.425,1.425,0,0,1,.114-.757,1.514,1.514,0,0,1,.47-.592,1.437,1.437,0,0,1,.711-.28,1.432,1.432,0,0,1,.759.115,1.517,1.517,0,0,1,.589.47,1.416,1.416,0,0,1,.282.711,1.431,1.431,0,0,1-.115.759,1.519,1.519,0,0,1-.469.589,1.41,1.41,0,0,1-.714.282,1.548,1.548,0,0,1-.179.01A1.382,1.382,0,0,1-5275.682-75.85Zm-92.1-8.323,5.676-.181.02-.067-4.666-3.235.387-1.31,5.885,4.259-.435,1.469-7.253.371Zm87.584-.721,2.065-2.921-1.1-.41-1.92.694-.422-1.167,6.441-2.331.423,1.167-2.96,1.071.029.079,3.87,1.442.513,1.426-3.792-1.446-2.641,3.8Zm-84.5-7.822.671-1.377,7.217.825-.579,1.191-1.768-.229-1.126,2.316,1.271,1.248-.579,1.191Zm1.588-.05,2.076,2.04.834-1.715-2.887-.373Zm80.127,1.236,1.515-2.411-.624-1.1-2.181,1.241-.614-1.079,5.954-3.387,1.27,2.233a2.888,2.888,0,0,1,.419,1.288,1.9,1.9,0,0,1-.265,1.087,2.324,2.324,0,0,1-.864.807,2.236,2.236,0,0,1-1.129.322,1.853,1.853,0,0,1-1.055-.345q-.058-.04-.114-.085l-1.625,2.63Zm2.353-3.024a1.9,1.9,0,0,0,.485.593.9.9,0,0,0,.544.193,1.225,1.225,0,0,0,.6-.179,1.263,1.263,0,0,0,.47-.434.912.912,0,0,0,.128-.577,1.818,1.818,0,0,0-.259-.726l-.562-.989-1.978,1.125Zm-80.828-4.01.688-1.033,5.705,3.792-.687,1.033Zm2.5-3.577.8-.946,4.43,3.758,1.953-2.3.793.672-2.754,3.247Zm72.2,4.134a3.125,3.125,0,0,1-1.354-.966,3.115,3.115,0,0,1-.713-1.5,2.967,2.967,0,0,1,.2-1.638,4.04,4.04,0,0,1,1.185-1.531,4.02,4.02,0,0,1,1.719-.9,2.951,2.951,0,0,1,1.645.088,3.118,3.118,0,0,1,1.355.966,3.1,3.1,0,0,1,.713,1.5,2.959,2.959,0,0,1-.2,1.636,4.027,4.027,0,0,1-1.187,1.533,4.021,4.021,0,0,1-1.717.9,3.219,3.219,0,0,1-.695.078A2.84,2.84,0,0,1-5286.756-98.007Zm1.289-5.343a3.2,3.2,0,0,0-1.165.659,3.189,3.189,0,0,0-.854,1.031,1.835,1.835,0,0,0-.193,1.036,1.777,1.777,0,0,0,.423.934,1.769,1.769,0,0,0,.843.579,1.806,1.806,0,0,0,1.055-.008,3.159,3.159,0,0,0,1.164-.659,3.21,3.21,0,0,0,.854-1.031,1.845,1.845,0,0,0,.192-1.036,1.791,1.791,0,0,0-.423-.934,1.78,1.78,0,0,0-.846-.579,1.64,1.64,0,0,0-.492-.074A2.065,2.065,0,0,0-5285.468-103.35Zm-66.837-5.729,1.175-.984,6.249,3.7-1.016.85-1.519-.931-1.976,1.654.649,1.659-1.015.85Zm1.469.6,1.061,2.711,1.463-1.223-2.481-1.521Zm57.556,4.169,1.886-4.628-.043-.035-4.046,2.936-.963-.755,2.7-6.585,1.05.823-2.133,4.724.05.039,4.142-3.149.956.749-2.067,4.779.047.036,4.079-3.2,1.051.822-5.747,4.2Zm-53.511-8.958,2.273-1.308a2.9,2.9,0,0,1,1.187-.414,1.673,1.673,0,0,1,.957.181,1.7,1.7,0,0,1,.667.667,1.46,1.46,0,0,1,.217.7,1.348,1.348,0,0,1-.135.632,1.835,1.835,0,0,1-.392.531l.033.058a1.5,1.5,0,0,1,.718-.156,1.6,1.6,0,0,1,.763.22,1.745,1.745,0,0,1,.628.666,1.782,1.782,0,0,1,.252.955,1.739,1.739,0,0,1-.339.965,3.076,3.076,0,0,1-1.009.864l-2.4,1.382Zm4.805,1.792a1.438,1.438,0,0,0-.646.206l-1.186.683,1,1.74,1.156-.666a1.474,1.474,0,0,0,.717-.71.841.841,0,0,0-.073-.729,1.043,1.043,0,0,0-.4-.4,1.032,1.032,0,0,0-.5-.124Zm-2.132-2.148-1.087.625.942,1.637,1.064-.612a1.36,1.36,0,0,0,.442-.392.959.959,0,0,0,.184-.495.908.908,0,0,0-.129-.526.849.849,0,0,0-.569-.428.8.8,0,0,0-.181-.02A1.352,1.352,0,0,0-5344.118-113.622Zm40.724,3.024-.322-2.829-1.173-.468-.929,2.331-1.153-.459,2.537-6.364,2.386.951a2.9,2.9,0,0,1,1.13.745,1.905,1.905,0,0,1,.472,1.015,2.321,2.321,0,0,1-.169,1.17,2.254,2.254,0,0,1-.682.958,1.861,1.861,0,0,1-1.039.389c-.047,0-.1.005-.145.005l.374,3.07Zm-.051-3.829a1.894,1.894,0,0,0,.749.159.9.9,0,0,0,.547-.189,1.221,1.221,0,0,0,.358-.517,1.262,1.262,0,0,0,.1-.633.932.932,0,0,0-.26-.53,1.83,1.83,0,0,0-.656-.406l-1.056-.422-.842,2.113Zm-36.1-2.66,1.161-.442,2.061,5.434,2.82-1.071.369.973-3.98,1.51Zm6.885-2.358,4.359-.924.216,1.019-3.145.667.387,1.819,2.918-.62.216,1.017-2.92.62.389,1.83,3.17-.674.216,1.019-4.385.928Zm20.64,6.249a3.108,3.108,0,0,1-1.5-.728,2.962,2.962,0,0,1-.864-1.407,4.008,4.008,0,0,1-.034-1.935,4.028,4.028,0,0,1,.779-1.777A2.951,2.951,0,0,1-5312.3-120a3.137,3.137,0,0,1,1.663-.093,3.125,3.125,0,0,1,1.5.726,2.955,2.955,0,0,1,.865,1.4,4.062,4.062,0,0,1,.032,1.939,4.016,4.016,0,0,1-.779,1.776,2.94,2.94,0,0,1-1.339.961,2.963,2.963,0,0,1-.98.164A3.469,3.469,0,0,1-5312.017-113.2Zm.143-5.732a1.835,1.835,0,0,0-.816.666,3.163,3.163,0,0,0-.5,1.242,3.194,3.194,0,0,0-.021,1.339,1.825,1.825,0,0,0,.5.928,1.777,1.777,0,0,0,.912.464,1.781,1.781,0,0,0,1.023-.077,1.83,1.83,0,0,0,.816-.664,3.192,3.192,0,0,0,.5-1.244,3.188,3.188,0,0,0,.021-1.338,1.836,1.836,0,0,0-.5-.928,1.794,1.794,0,0,0-.914-.465,2.008,2.008,0,0,0-.395-.04A1.7,1.7,0,0,0-5311.874-118.928Zm-9.444,4.777.174-6.849,4.387.112-.026,1.04-3.147-.081-.047,1.859,2.846.073-.026,1.039-2.847-.071-.073,2.909Z" transform="translate(5369.54 121.513)" fill="#fff" stroke="rgba(0,0,0,0)" stroke-miterlimit="10" stroke-width="1"/>
</svg>
